<svg width="1010" height="551" fill="none" xmlns="http://www.w3.org/2000/svg"><g filter="url(#filter0_d)"><path fill-rule="evenodd" clip-rule="evenodd" d="M102.055 195.139c-22.164 0-33.265 26.796-17.595 42.471l79.161 79.179a71.265 71.265 0 0050.397 20.879h22.935a100.002 100.002 0 0170.719 29.298l75.718 75.736A99.998 99.998 0 00454.109 472H675.78c44.369 0 66.592-53.641 35.222-85.018l-52.835-52.848c-11.87-11.873-3.461-32.171 13.328-32.171 16.789 0 25.198-20.297 13.328-32.171L572.291 157.233a84.79 84.79 0 00-59.96-24.84H394.012a97.949 97.949 0 01-69.267-28.696l-2.377-2.378A89.834 89.834 0 00258.839 75H126.941c-31.349 0-47.05 37.9-24.886 60.07l17.595 17.599c15.671 15.674 4.569 42.47-17.595 42.47z" fill="#2D314D"/></g><path fill-rule="evenodd" clip-rule="evenodd" d="M316.055 196.139c-22.164 0-33.265 26.796-17.595 42.471l79.161 79.179a71.265 71.265 0 0050.397 20.879h22.935a100.002 100.002 0 0170.719 29.298l75.718 75.736A99.998 99.998 0 00668.109 473H889.78c44.369 0 66.592-53.641 35.222-85.018l-52.835-52.848c-11.87-11.873-3.461-32.171 13.328-32.171 16.789 0 25.198-20.297 13.328-32.171L786.291 158.233a84.79 84.79 0 00-59.96-24.84H608.012a97.949 97.949 0 01-69.267-28.696l-2.377-2.378A89.834 89.834 0 00472.839 76H340.941c-31.349 0-47.05 37.9-24.886 60.07l17.595 17.599c15.671 15.674 4.569 42.47-17.595 42.47z" fill="url(#paint0_linear)"/><defs><linearGradient id="paint0_linear" x1="-119.418" y1="273.667" x2="206.527" y2="892.717" gradientUnits="userSpaceOnUse"><stop stop-color="#33D35E"/><stop offset="1" stop-color="#2AB6D9"/></linearGradient><filter id="filter0_d" x=".125" y="0" width="802.56" height="551" filterUnits="userSpaceOnUse" color-interpolation-filters="sRGB"><feFlood flood-opacity="0" result="BackgroundImageFix"/><feColorMatrix in="SourceAlpha" values="0 0 0 0 0 0 0 0 0 0 0 0 0 0 0 0 0 0 127 0" result="hardAlpha"/><feOffset dy="2"/><feGaussianBlur stdDeviation="38.5"/><feColorMatrix values="0 0 0 0 0 0 0 0 0 0 0 0 0 0 0 0 0 0 0.0240111 0"/><feBlend in2="BackgroundImageFix" result="effect1_dropShadow"/><feBlend in="SourceGraphic" in2="effect1_dropShadow" result="shape"/></filter></defs></svg>